<?xml version="1.0" encoding="UTF-8"?>
<!DOCTYPE svg PUBLIC "-//W3C//DTD SVG 1.1//EN" "http://www.w3.org/Graphics/SVG/1.1/DTD/svg11.dtd">
<!-- Creator: CorelDRAW -->
<svg xmlns="http://www.w3.org/2000/svg" xml:space="preserve" width="55.9874mm" height="47.355mm" version="1.1" style="shape-rendering:geometricPrecision; text-rendering:geometricPrecision; image-rendering:optimizeQuality; fill-rule:evenodd; clip-rule:evenodd"
viewBox="0 0 5598.74 4735.5"
 xmlns:xlink="http://www.w3.org/1999/xlink"
 xmlns:xodm="http://www.corel.com/coreldraw/odm/2003">
 <defs>
  <style type="text/css">
   <![CDATA[
    .str1 {stroke:#373435;stroke-width:20;stroke-miterlimit:22.9256}
    .str0 {stroke:#E7A167;stroke-width:20;stroke-miterlimit:22.9256}
    .fil0 {fill:none}
   ]]>
  </style>
 </defs>
 <g id="Слой_x0020_1">
  <metadata id="CorelCorpID_0Corel-Layer"/>
  <path class="fil0 str0" d="M3466.49 3526.78l401.2 -67.48c270.67,-65.92 496.67,-134.02 764.22,-273.1 430.4,-249.17 676.01,-477.41 915.26,-1103.04 53.46,-271.86 46.43,-323.43 -28.65,-587.36 -371.56,-724.01 -1049.63,-490.14 -1664.99,-386.64 -170.86,28.74 -392.57,141.88 -550.97,190.9 -173.79,70.99 -342.43,151.79 -514.72,227.15 -284.54,121.96 -516.06,171.79 -828.66,177.79 -232.85,4.32 -316.74,-5.54 -514.56,-137.43 -397.21,-283.71 -478,-730.16 -226.11,-1122 43.11,-55.13 162.18,-201.81 293.38,-196.79 160.75,6.15 203.46,79.01 231.61,184.97 78.27,294.6 -396.42,507.97 -644.53,504.29 -133.72,-1.98 -309.86,-10.25 -481.48,-20.09 -174.26,-10 -339.98,-38.59 -471.1,43.02 -49.54,30.84 -143.16,128.28 -143.16,181.54"/>
  <path class="fil0 str0" d="M4646.2 4730.01c316.65,-414.06 165.81,-728.5 -326.53,-833.29 -158.58,-26.8 -235.55,-41.62 -626.56,25.24 -350.86,64.65 -641.77,160.13 -983.06,247.65l-230.25 52.33c-197.12,32.85 -294.96,54.08 -481.43,-31.4 -91.62,-72.34 -85.66,-79.55 -90.7,-195.36 25.92,-233.49 206.77,-303.45 411.65,-359.32l103.57 -12.52"/>
  <path class="fil0 str1" d="M2384.29 1890.04c0,0 110.46,-147.54 76.23,-176.17"/>
  <path class="fil0 str1" d="M1874.98 6.58l749.63 997.45c46.27,132.59 67.2,163.19 72.48,195.92 6.54,40.54 -4.23,80.49 -48.62,215.32 -37.06,112.56 -178.36,336.08 -285.03,343.27"/>
  <path class="fil0 str1" d="M3171.56 1088.07c-220.72,29.7 -365.78,86.39 -541.82,-78.09l327.3 449.67"/>
  <polyline class="fil0 str1" points="3295.04,1370.42 3171.7,1088.88 3288.79,1082.87 "/>
  <path class="fil0 str1" d="M2315.67 2169.33c-0.16,-0.04 45.93,-282.79 68.62,-279.29 13.15,2.02 73.86,243.48 155.94,230.05 128,-62.77 623.25,-615.99 754.81,-749.67 114.99,57.19 112.47,7.51 114.63,7.56"/>
  <path class="fil0 str1" d="M4358.91 433.47c26.17,-15.95 122.67,-181.07 141.48,24.37 54.39,593.15 -20.11,691.57 -47.79,738.64 -28.57,106.64 -410.9,745.31 -420.42,821.29"/>
  <path class="fil0 str1" d="M3751.79 1154.25c18.99,-20.93 104.55,-88.94 147.86,-195.8 100.67,-248.42 277.79,-635.06 386.1,-703.61 16.42,-10.39 47.04,-10.61 57.38,-6.84 48.96,17.87 90.03,72.58 15.78,185.47 -34.45,52.37 -79.87,123.57 -116.42,223.29 -54.44,148.54 -43.71,339.91 -72.93,393.78 -66.96,123.47 -402.16,523.8 -402.16,523.8"/>
  <path class="fil0 str1" d="M2707.9 4354.85c0,0 -97.39,-317.58 -242.1,-659.66 -174.45,-412.4 -371.8,-780.24 -457.28,-874.42 -180.66,-199.04 -206.24,-940.32 86.08,-1203.01 289.47,-260.18 304.22,-257.69 319.61,-276.82 68.37,-61.6 197.83,-316.17 215.53,-330.96 116.08,-97.01 239.64,-150.26 440.75,-187.18 285.05,-52.33 312.5,-57.68 528.83,160.98 82.56,83.45 90.64,112.27 146.62,183.04 12.18,15.39 -210.81,280.91 -210.81,280.91"/>
  <path class="fil0 str1" d="M2720.47 2858.92c0,0 122.87,-237.62 253.01,-308.3 496.35,-245.98 366.24,-165.77 489.83,-254.26"/>
  <path class="fil0 str1" d="M3966.55 4323.86l-308.9 -412.11 -353.24 -710.01c-116.1,128.47 -86.92,102.11 -110.09,128.27 676.77,-807.56 1091.08,-954 1263.33,-1111.73 210.84,-208.33 269.14,-568.33 317.42,-642.92 48.28,-74.59 96.36,-168.63 24.09,-186.71 -11.5,0 -61.13,-28.2 -207.79,117.45 -146.66,145.65 -111.42,186.7 -261.99,361.36 -150.57,174.66 -276.96,140.37 -414.78,160.47 -137.82,20.1 -126.34,22.98 -155.05,51.69"/>
 </g>
</svg>
